<?xml version="1.0" encoding="UTF-8" standalone="no"?>
<!DOCTYPE svg PUBLIC "-//W3C//DTD SVG 1.1//EN" "http://www.w3.org/Graphics/SVG/1.1/DTD/svg11.dtd">
<svg xmlns="http://www.w3.org/2000/svg" xmlns:xlink="http://www.w3.org/1999/xlink" version="1.1" width="2000pt" height="701.592pt" viewBox="0 0 2000 701.592">
<g enable-background="new">
<g id="Layer-1" data-name="Layer 1">
<clipPath id="cp0">
<path transform="matrix(1,0,0,-1,0,701.592)" d="M 0 701.592 L 2000 701.592 L 2000 0 L 0 0 Z "/>
</clipPath>
<g clip-path="url(#cp0)">
<path transform="matrix(1,0,0,-1,837.562,157.849)" d="M 0 0 L 0 -385.113 L -27.501 -385.113 L -27.501 -301.609 C -59.157 -351.78 -115.092 -385.104 -178.811 -385.104 C -227.973 -385.104 -272.554 -365.25 -304.869 -333.089 C -311.526 -326.491 -317.659 -319.348 -323.21 -311.74 C -342.308 -285.655 -354.478 -254.194 -357.078 -220.074 L -287.983 -220.074 C -285.83 -237.367 -279.677 -253.398 -270.458 -267.216 C -250.739 -296.835 -217.065 -316.339 -178.811 -316.339 C -118.023 -316.339 -68.764 -267.081 -68.764 -206.313 C -68.764 -145.544 -118.023 -96.286 -178.811 -96.286 C -217.065 -96.286 -250.739 -115.792 -270.458 -145.409 C -277.911 -121.245 -289.672 -98.983 -304.869 -79.536 C -272.554 -47.357 -227.973 -27.502 -178.811 -27.502 C -115.092 -27.502 -59.157 -60.826 -27.501 -111.017 L -27.501 0 Z " fill="#0056b8"/>
<path transform="matrix(1,0,0,-1,452.458,364.162)" d="M 0 0 C 0 -4.696 -.388 -9.277 -1.146 -13.761 L -163.905 -13.761 C -164.662 -9.277 -165.05 -4.696 -165.05 0 C -165.05 4.697 -164.662 9.277 -163.905 13.761 L -1.146 13.761 C -.388 9.277 0 4.697 0 0 " fill="#4a7d3a"/>
<path transform="matrix(1,0,0,-1,452.458,364.162)" d="M 0 0 C 0 -4.696 -.388 -9.277 -1.146 -13.761 L -163.905 -13.761 C -164.662 -9.277 -165.05 -4.696 -165.05 0 C -165.05 4.697 -164.662 9.277 -163.905 13.761 L -1.146 13.761 C -.388 9.277 0 4.697 0 0 " fill="#4a7d3a"/>
<path transform="matrix(1,0,0,-1,452.458,364.162)" d="M 0 0 C 0 -4.696 -.388 -9.277 -1.146 -13.761 L -163.905 -13.761 C -164.662 -9.277 -165.05 -4.696 -165.05 0 C -165.05 4.697 -164.662 9.277 -163.905 13.761 L -1.146 13.761 C -.388 9.277 0 4.697 0 0 " fill="#4a7d3a"/>
<path transform="matrix(1,0,0,-1,461.5991,425.04679)" d="M 0 0 C 7.434 -24.163 19.215 -46.425 34.392 -65.892 C 2.077 -98.052 -42.485 -117.906 -91.667 -117.906 C -190.417 -117.906 -270.477 -37.865 -270.477 60.885 C -270.477 159.636 -190.417 239.696 -91.667 239.696 C -42.485 239.696 2.077 219.841 34.392 187.662 C 41.049 181.062 47.202 173.92 52.752 166.312 C 71.831 140.227 84 108.766 86.601 74.646 L 17.507 74.646 C 15.353 91.919 9.2 107.951 0 121.77 C -19.719 151.387 -53.412 170.912 -91.667 170.912 C -152.435 170.912 -201.712 121.653 -201.712 60.885 C -201.712 .117 -152.435 -49.142 -91.667 -49.142 C -53.412 -49.142 -19.719 -29.617 0 0 " fill="#4a7d3a"/>
<path transform="matrix(1,0,0,-1,451.3125,350.40129)" d="M 0 0 L -162.76 0 C -163.517 -4.483 -163.905 -9.063 -163.905 -13.761 C -163.905 -18.457 -163.517 -23.038 -162.76 -27.521 L 0 -27.521 C .757 -23.038 1.146 -18.457 1.146 -13.761 C 1.146 -9.063 .757 -4.483 0 0 M 0 0 L -162.76 0 C -163.517 -4.483 -163.905 -9.063 -163.905 -13.761 C -163.905 -18.457 -163.517 -23.038 -162.76 -27.521 L 0 -27.521 C .757 -23.038 1.146 -18.457 1.146 -13.761 C 1.146 -9.063 .757 -4.483 0 0 M 0 0 L -162.76 0 C -163.517 -4.483 -163.905 -9.063 -163.905 -13.761 C -163.905 -18.457 -163.517 -23.038 -162.76 -27.521 L 0 -27.521 C .757 -23.038 1.146 -18.457 1.146 -13.761 C 1.146 -9.063 .757 -4.483 0 0 M 0 0 L -162.76 0 C -163.517 -4.483 -163.905 -9.063 -163.905 -13.761 C -163.905 -18.457 -163.517 -23.038 -162.76 -27.521 L 0 -27.521 C .757 -23.038 1.146 -18.457 1.146 -13.761 C 1.146 -9.063 .757 -4.483 0 0 M 0 0 L -162.76 0 C -163.517 -4.483 -163.905 -9.063 -163.905 -13.761 C -163.905 -18.457 -163.517 -23.038 -162.76 -27.521 L 0 -27.521 C .757 -23.038 1.146 -18.457 1.146 -13.761 C 1.146 -9.063 .757 -4.483 0 0 M 0 0 L -162.76 0 C -163.517 -4.483 -163.905 -9.063 -163.905 -13.761 C -163.905 -18.457 -163.517 -23.038 -162.76 -27.521 L 0 -27.521 C .757 -23.038 1.146 -18.457 1.146 -13.761 C 1.146 -9.063 .757 -4.483 0 0 M 0 0 L -162.76 0 C -163.517 -4.483 -163.905 -9.063 -163.905 -13.761 C -163.905 -18.457 -163.517 -23.038 -162.76 -27.521 L 0 -27.521 C .757 -23.038 1.146 -18.457 1.146 -13.761 C 1.146 -9.063 .757 -4.483 0 0 M 0 0 L -162.76 0 C -163.517 -4.483 -163.905 -9.063 -163.905 -13.761 C -163.905 -18.457 -163.517 -23.038 -162.76 -27.521 L 0 -27.521 C .757 -23.038 1.146 -18.457 1.146 -13.761 C 1.146 -9.063 .757 -4.483 0 0 M 0 0 L -162.76 0 C -163.517 -4.483 -163.905 -9.063 -163.905 -13.761 C -163.905 -18.457 -163.517 -23.038 -162.76 -27.521 L 0 -27.521 C .757 -23.038 1.146 -18.457 1.146 -13.761 C 1.146 -9.063 .757 -4.483 0 0 " fill="#4a7d3a"/>
<path transform="matrix(1,0,0,-1,1098.668,331.0522)" d="M 0 0 C -4.194 -3.698 -6.166 -9.126 -6.166 -16.772 L -6.166 -47.857 C -6.166 -55.503 -4.194 -61.177 0 -64.633 C 4.44 -68.582 12.09 -70.799 21.709 -70.799 C 31.576 -70.799 39.227 -68.582 43.666 -64.633 C 47.86 -61.177 49.833 -55.503 49.833 -47.857 L 49.833 -16.772 C 49.833 -9.126 47.86 -3.698 43.666 0 C 39.227 3.948 31.576 6.17 21.709 6.17 C 12.09 6.17 4.44 3.948 0 0 M 49.833 -97.936 L 49.952 -91.332 C 43.114 -96.147 32.564 -97.936 21.709 -97.936 C 5.182 -97.936 -8.139 -93.742 -18.007 -85.108 C -28.121 -76.227 -33.303 -63.399 -33.303 -47.857 L -33.303 -16.772 C -33.303 -1.234 -28.121 11.595 -18.007 20.475 C -8.139 28.863 5.182 33.303 21.709 33.303 C 36.478 33.303 45.917 27.879 49.833 23.641 L 49.833 74.75 L 76.97 74.75 L 76.97 -97.936 Z " fill="#0056b8"/>
<path transform="matrix(1,0,0,-1,1264.7285,324.8823)" d="M 0 0 C -9.868 0 -17.518 -2.222 -21.958 -6.17 C -26.152 -9.868 -28.124 -15.296 -28.124 -22.942 L -28.124 -104.106 L -55.261 -104.106 L -55.261 27.133 L -28.124 27.133 L -28.124 16.315 C -22.742 22.608 -10.856 27.133 0 27.133 L 17.087 27.133 L 17.087 0 Z " fill="#0056b8"/>
<path transform="matrix(1,0,0,-1,1731.2256,331.0522)" d="M 0 0 C -4.193 -3.698 -6.166 -9.126 -6.166 -16.772 L -6.166 -47.857 C -6.166 -55.503 -4.193 -61.177 0 -64.633 C 4.44 -68.582 12.09 -70.799 21.958 -70.799 C 31.577 -70.799 39.227 -68.582 43.667 -64.633 C 47.86 -61.177 49.833 -55.503 49.833 -47.857 L 49.833 -16.772 C 49.833 -9.126 47.86 -3.698 43.667 0 C 39.227 3.948 31.577 6.17 21.958 6.17 C 12.09 6.17 4.44 3.948 0 0 M 61.674 20.475 C 71.788 11.595 76.97 -1.234 76.97 -16.772 L 76.97 -47.857 C 76.97 -63.399 71.788 -76.227 61.674 -85.108 C 51.806 -93.742 38.485 -97.936 21.958 -97.936 C 5.182 -97.936 -8.139 -93.742 -18.007 -85.108 C -27.875 -76.227 -33.303 -63.399 -33.303 -47.857 L -33.303 -16.772 C -33.303 -1.234 -27.875 11.595 -18.007 20.475 C -8.139 28.863 5.182 33.303 21.958 33.303 C 38.485 33.303 51.806 28.863 61.674 20.475 " fill="#0056b8"/>
<path transform="matrix(1,0,0,-1,1491.5742,297.47599)" d="M 0 0 C 21.708 0 36.359 -11.14 44.129 -22.891 C 45.654 -25.197 49.154 -32.619 49.154 -39.072 L 26.152 -39.469 C 25.106 -35.476 22.618 -31.864 19.681 -29.954 C 13.581 -25.988 6.601 -23.923 -2.409 -23.918 C -11.419 -23.913 -17.938 -25.76 -24.306 -30.596 C -31.449 -36.022 -29.383 -44.697 -23.198 -47.885 C -18.526 -50.293 -7.655 -52.775 2.953 -52.942 C 15.186 -53.135 26.287 -55.011 35.663 -60.932 C 46.766 -67.839 52.686 -78.693 52.686 -91.767 C 52.686 -104.595 46.766 -115.451 35.663 -122.359 C 26.287 -128.279 17.601 -131.24 -2.71 -131.24 C -28.864 -131.24 -40.729 -121.329 -48.578 -111.889 C -50.913 -109.082 -55.834 -98.662 -55.837 -91.767 L -28.996 -91.767 C -26.874 -101.359 -15.444 -106.207 -2.313 -106.207 C 17.279 -106.207 25.549 -98.791 25.549 -91.767 C 25.549 -81.581 8.096 -78.239 -2.263 -78.015 C -18.462 -77.664 -27.765 -75.054 -36.892 -69.38 C -47.993 -62.472 -53.651 -52.606 -53.651 -39.778 C -53.651 -26.704 -45.874 -15.736 -34.772 -8.828 C -25.646 -3.154 -16.919 0 0 0 " fill="#0056b8"/>
<path transform="matrix(1,0,0,-1,1647.7402,382.34559)" d="M 0 0 C -.548 -5.84 -2.48 -10.295 -5.984 -13.182 C -10.424 -17.129 -18.074 -19.348 -27.692 -19.348 C -37.561 -19.348 -45.21 -17.129 -49.65 -13.182 C -53.845 -9.726 -55.816 -4.052 -55.816 3.595 L -55.816 34.679 C -55.816 42.326 -53.845 47.753 -49.65 51.452 C -45.21 55.4 -37.558 57.86 -27.692 57.622 C -6.764 57.115 -2.713 47.917 -1.884 38.271 L 25.021 38.271 C 24.572 52.09 20.34 63.88 11.023 72.061 C 1.155 80.449 -11.166 84.755 -27.692 84.755 C -44.469 84.755 -57.789 80.315 -67.657 71.927 C -77.525 63.046 -82.953 50.218 -82.953 34.679 L -82.953 3.595 C -82.953 -11.947 -77.525 -24.775 -67.657 -33.656 C -57.789 -42.29 -44.469 -46.484 -27.692 -46.484 C -11.166 -46.484 2.154 -42.29 12.022 -33.656 C 21.34 -25.476 26.415 -13.915 27.166 0 Z " fill="#0056b8"/>
<path transform="matrix(1,0,0,-1,1332.2149,347.2787)" d="M 0 0 C 0 7.646 1.914 12.28 6.108 15.979 C 10.548 19.927 18.198 22.148 28.066 22.148 C 37.685 22.148 45.334 19.927 49.774 15.979 C 53.969 12.28 55.978 7.485 55.978 -.161 L 56.208 -2.77 L -.249 -2.77 Z M 53.747 -46.178 C 51.058 -51.876 43.745 -56.749 28.895 -56.749 C 18.8 -56.749 -.059 -53.864 -.059 -31.878 L -.249 -29.907 L 83.077 -29.907 L 83.077 -.794 C 83.077 14.745 77.896 27.573 67.781 36.453 C 57.913 44.841 44.593 49.282 28.066 49.282 C 11.29 49.282 -2.03 44.841 -11.898 36.453 C -21.767 27.573 -27.194 14.745 -27.194 -.794 L -27.194 -31.878 C -27.194 -47.42 -21.767 -60.249 -11.898 -69.129 C -2.03 -77.763 12.354 -81.958 28.066 -81.958 C 60.381 -81.958 78.112 -66.606 81.471 -46.178 Z " fill="#0056b8"/>
<path transform="matrix(1,0,0,-1,957.127,347.2787)" d="M 0 0 C 0 7.646 1.914 12.28 6.108 15.979 C 10.548 19.927 18.198 22.148 28.066 22.148 C 37.685 22.148 45.334 19.927 49.774 15.979 C 53.969 12.28 55.977 7.485 55.977 -.161 L 56.208 -2.77 L -.249 -2.77 Z M 53.747 -46.178 C 51.058 -51.876 43.745 -56.749 28.895 -56.749 C 18.799 -56.749 -.059 -53.864 -.059 -31.878 L -.249 -29.907 L 83.077 -29.907 L 83.077 -.794 C 83.077 14.745 77.896 27.573 67.781 36.453 C 57.913 44.841 44.593 49.282 28.066 49.282 C 11.29 49.282 -2.031 44.841 -11.899 36.453 C -21.767 27.573 -27.195 14.745 -27.195 -.794 L -27.195 -31.878 C -27.195 -47.42 -21.767 -60.249 -11.899 -69.129 C -2.031 -77.763 12.353 -81.958 28.066 -81.958 C 60.381 -81.958 78.112 -66.606 81.47 -46.178 Z " fill="#0056b8"/>
</g>
</g>
</g>
</svg>
