<svg xmlns:xlink="http://www.w3.org/1999/xlink" xmlns="http://www.w3.org/2000/svg" id="cap" width="70" height="64" viewBox="0 0 81 72" fill="none">
                    <g fill="none">
                        <path d="M43.4354 65.1257C35.9559 66.4445 28.3428 65.7469 21.0878 63.0778C20.6564 62.9223 20.2696 62.61 19.9748 62.179C19.68 61.748 19.4897 61.217 19.4273 60.6505L16.7281 36.8862C16.6403 36.1076 16.7983 35.3163 17.1672 34.686C17.5362 34.0557 18.0861 33.6379 18.6962 33.5242L60.1258 25.8649C60.7362 25.753 61.3564 25.9545 61.8504 26.4252C62.3444 26.8959 62.6719 27.5975 62.761 28.3759L65.4602 52.1402C65.5264 52.706 65.4622 53.2841 65.2753 53.8041C65.0885 54.3241 64.7872 54.7636 64.4081 55.069C58.0454 60.2556 50.9006 63.6816 43.4354 65.1257V65.1257Z" fill="#1A2240"></path>
                        <path d="M41.243 45.8747C40.9359 45.9318 40.623 45.91 40.3226 45.8106L5.46084 34.2007C5.01127 34.051 4.60716 33.7329 4.3006 33.2875C3.99404 32.842 3.7991 32.2897 3.7409 31.7016C3.68271 31.1134 3.76394 30.5166 3.9741 29.9879C4.18427 29.4593 4.51373 29.023 4.92003 28.7355L35.9676 6.76065C36.4675 6.40554 37.0527 6.29896 37.6106 6.46145L71.83 16.37C72.2813 16.5007 72.6918 16.8002 73.009 17.2302C73.3261 17.6602 73.5355 18.2012 73.6103 18.7839C73.6851 19.3665 73.622 19.9644 73.429 20.5011C73.2359 21.0377 72.9218 21.4887 72.5268 21.7963L42.1216 45.4721C41.853 45.6806 41.5542 45.8175 41.243 45.8747V45.8747Z" fill="#1A2240"></path>
                        <path opacity="0.2" d="M72.3536 19.2659L41.9483 42.9418C41.7113 43.1264 41.4475 43.2482 41.1728 43.2998C40.898 43.3515 40.6179 43.332 40.3492 43.2425L5.48757 31.6331C5.05036 31.4926 4.66231 31.1702 4.38472 30.717C4.27626 31.0642 4.22695 31.4369 4.24004 31.8104C4.25314 32.1838 4.32837 32.5494 4.46071 32.8829C4.59305 33.2165 4.77949 33.5102 5.00765 33.7448C5.23581 33.9793 5.50046 34.1492 5.78404 34.2433L40.6457 45.8527C40.9144 45.9422 41.1945 45.9617 41.4692 45.91C41.744 45.8583 42.0077 45.7366 42.2448 45.552L72.6501 21.8761C72.8996 21.6822 73.114 21.423 73.2792 21.1156C73.4444 20.8083 73.5567 20.4597 73.6085 20.0929C73.6603 19.7261 73.6506 19.3494 73.58 18.9878C73.5093 18.6262 73.3793 18.2878 73.1986 17.9949C73.0345 18.5258 72.7374 18.9726 72.3536 19.2659V19.2659Z" fill="black"></path>
                        <g id="cap-thread" fill="none">
                            <path d="M23.7512 64.2366C25.4461 63.9232 26.621 61.9163 26.3754 59.7539C26.1298 57.5916 24.5567 56.0927 22.8618 56.406C21.1669 56.7194 19.9921 58.7263 20.2377 60.8887C20.4833 63.051 22.0564 64.5499 23.7512 64.2366Z" fill="#4E9F3D"></path>
                            <path d="M23.5627 60.2581C23.6984 60.233 23.8207 60.1402 23.9027 60.0001C23.9847 59.86 24.0197 59.6841 24.0001 59.511L21.52 37.676L37.4986 26.7169C37.6345 26.6944 37.7579 26.6039 37.8415 26.4654C37.9252 26.3268 37.9623 26.1515 37.9447 25.9781C37.927 25.8047 37.8561 25.6473 37.7475 25.5405C37.6389 25.4338 37.5015 25.3865 37.3656 25.409L21.387 36.3681C21.2508 36.3892 21.1194 36.4453 21.0007 36.5332C20.882 36.621 20.7785 36.7386 20.6965 36.8789C20.6133 37.018 20.5528 37.1769 20.5185 37.3463C20.4843 37.5156 20.477 37.6921 20.497 37.8651L22.9771 59.7001C22.9968 59.8732 23.0695 60.0292 23.1793 60.1338C23.2892 60.2385 23.4271 60.2832 23.5627 60.2581Z" fill="#4A7D33"></path>
                        </g>
                    </g>
                </svg>